<?xml version="1.0" encoding="utf-8"?>
<!-- Uploaded to: SVG Repo, www.svgrepo.com, Generator: SVG Repo Mixer Tools -->
<svg width="800px" height="800px" viewBox="0 0 1024 1024" class="icon"  version="1.1" xmlns="http://www.w3.org/2000/svg"><path d="M179.693922 855.825812h663.646632v55.304141H179.693922z" fill="#FFFFFF" /><path d="M207.345993 800.52167h608.34249v55.304142H207.345993z" fill="#FFB957" /><path d="M179.693922 800.52167h663.646632V634.610268c0-183.262163-148.561665-331.823828-331.823828-331.823828S179.693922 451.348105 179.693922 634.610268v165.911402z" fill="#FFFFFF" /><path d="M843.340554 924.955477H179.693922c-7.635113 0-13.825524-6.190411-13.825523-13.825524v-55.304141c0-7.635113 6.190411-13.825524 13.825523-13.825524h663.646632c7.635113 0 13.825524 6.190411 13.825523 13.825524v55.304141c0 7.635113-6.190411 13.825524-13.825523 13.825524z m-649.821108-27.652071H829.514006v-27.652071H193.519446v27.652071z" fill="#4D5152" /><path d="M497.691203 676.088886v-82.956213l138.259331-262.693138c27.652071 0 207.39002 96.781736 207.39002 304.171757v41.477594H497.691203z" fill="#ACF0F2" /><path d="M497.691203 192.17918h27.652071v96.781736h-27.652071z" fill="#4D5152" /><path d="M552.995345 150.701585c0 22.912506-18.578399 41.477595-41.477595 41.477595-22.898171 0-41.477595-18.565089-41.477594-41.477595 0-22.898171 18.579423-41.477595 41.477594-41.477594 22.899195 0 41.477595 18.579423 41.477595 41.477594z" fill="#FFB957" /><path d="M511.516726 206.005727c-30.494377 0-55.304142-24.809765-55.304142-55.304142s24.809765-55.304142 55.304142-55.304142 55.304142 24.809765 55.304142 55.304142-24.809765 55.304142-55.304142 55.304142z m0-82.956213c-15.250772 0-27.652071 12.401299-27.652071 27.652071s12.401299 27.652071 27.652071 27.652071c15.250772 0 27.652071-12.401299 27.652071-27.652071s-12.401299-27.652071-27.652071-27.652071zM497.677892 606.958197c-2.167565 0-4.367895-0.512967-6.426928-1.593166-6.757643-3.550834-9.350121-11.914954-5.792119-18.67362l138.259331-262.693139c3.544691-6.750476 11.888333-9.370598 18.67362-5.792119 6.757643 3.550834 9.350121 11.914954 5.792119 18.67362L509.923561 599.572912c-2.470635 4.69861-7.276753 7.385285-12.245669 7.385285zM511.516726 662.262339H829.514006v27.652071H511.516726z" fill="#4D5152" /><path d="M552.995345 634.610268c0 22.912506-18.578399 41.477595-41.477595 41.477594-22.898171 0-41.477595-18.565089-41.477594-41.477594 0-22.898171 18.579423-41.477595 41.477594-41.477595 22.899195 0 41.477595 18.579423 41.477595 41.477595z" fill="#FFB957" /><path d="M511.516726 689.91441c-30.494377 0-55.304142-24.809765-55.304142-55.304142s24.809765-55.304142 55.304142-55.304142 55.304142 24.809765 55.304142 55.304142-24.809765 55.304142-55.304142 55.304142z m0-82.956213c-15.250772 0-27.652071 12.401299-27.652071 27.652071 0 15.250772 12.401299 27.652071 27.652071 27.652071 15.250772 0 27.652071-12.401299 27.652071-27.652071 0-15.250772-12.401299-27.652071-27.652071-27.652071z" fill="#4D5152" /><path d="M843.340554 814.348217H179.693922c-7.635113 0-13.825524-6.190411-13.825523-13.825524V634.610268c0-190.593182 155.05617-345.649351 345.649351-345.649352s345.649351 155.05617 345.649351 345.649352v165.911402c-0.001024 7.636137-6.191435 13.826547-13.826547 13.826547z m-649.821108-27.652071H829.514006V634.610268c0-175.34241-142.654871-317.99728-317.99728-317.997281S193.519446 459.267858 193.519446 634.610268v152.085878zM193.519446 814.348217h27.652071v27.652071h-27.652071zM801.862959 814.348217h27.652071v27.652071h-27.652071z" fill="#4D5152" /><path d="M345.605324 579.306126h27.652071v110.60726H345.605324zM400.909466 579.306126h27.652071v110.60726h-27.652071zM290.301182 579.306126h27.652071v110.60726h-27.652071zM774.210888 634.610268H746.558817c0-78.588318-39.047915-151.653799-104.450637-195.453566l15.392068-22.980082c73.078791 48.943766 116.71064 130.60374 116.71064 218.433648z" fill="#4D5152" /></svg>